

<svg xmlns="http://www.w3.org/2000/svg" xml:space="preserve" width="594mm" height="420mm" version="1.1" style="shape-rendering:geometricPrecision; text-rendering:geometricPrecision; image-rendering:optimizeQuality; fill-rule:evenodd; clip-rule:evenodd"
viewBox="0 0 59400 42000"
 xmlns:xlink="http://www.w3.org/1999/xlink"
 xmlns:xodm="http://www.corel.com/coreldraw/odm/2003">
 <defs>
  <style type="text/css">
   <![CDATA[
    .fil1 {fill:#002C5B;fill-rule:nonzero}
    .fil0 {fill:url(#id0)}
   ]]>
  </style>
  <linearGradient id="id0" gradientUnits="userSpaceOnUse" x1="9861.58" y1="27030.84" x2="9861.58" y2="14983.42">
   <stop offset="0" style="stop-opacity:1; stop-color:#049EE2"/>
   <stop offset="0.439216" style="stop-opacity:1; stop-color:#7354B0"/>
   <stop offset="1" style="stop-opacity:1; stop-color:#E2097E"/>
  </linearGradient>
 </defs>
 <g id="Camada_x0020_1">
  <metadata id="CorelCorpID_0Corel-Layer"/>
  <g id="_2926927220448">
   <path class="fil0" d="M9857.34 14983.42c1384.31,0 2659.3,467.28 3676.55,1252.24l-1448.02 0c-68.2,-104.39 -138.49,-206.44 -210.82,-306.04l-5259.29 0c935.89,-598.84 2048.1,-946.2 3241.58,-946.2zm4357.15 1864.4c283.62,297 536.83,623.18 755.42,973.18l-2082.13 0c-39.22,-103.26 -79.91,-205.41 -122.55,-306.04l-7816.21 0c167.75,-235.53 351.96,-458.52 551.18,-667.14l8714.29 0zm1090.11 1585.34c147.15,310.7 268.24,636.07 361,973.18l-2333.96 0 -1.67 -11.39c-19.11,-102.79 -39.47,-193.52 -61.76,-294.65l-9126.08 0c76.24,-228.8 165.83,-451.51 267.95,-667.14l10894.52 0zm495.23 1585.34c52.39,316.71 80.23,641.8 81.05,973.18l-2388.24 0c-2.35,-102.51 -6.27,-204.52 -11.61,-306.04l-9638.75 0c11.96,-225.88 36.41,-448.52 72.58,-667.14l11884.97 0zm51.82 1585.33c-32.74,333.13 -92.9,658.22 -177.68,973.19l-2271.28 0c13.74,-99.98 25.63,-204.88 36.38,-306.04l-9472.24 0c-46.7,-218.23 -81.55,-440.84 -103.8,-667.15l11988.62 0zm-378.29 1585.34c-132.38,340.53 -294.9,665.94 -484.16,973.19l-1946.51 0c32.39,-100.98 63.35,-202.96 92.47,-306.04l-8586.04 0c-115.62,-214.88 -218.55,-437.56 -307.79,-667.15l11232.03 0zm-916.06 1585.34c-289.38,360.72 -619.27,687.54 -983.12,973.19l-1219.21 0c56.41,-100.23 110.95,-202.28 163.62,-306.04l-6737.91 0c-224.1,-206.24 -432.51,-429.34 -623.29,-667.15l9399.91 0zm-1934.91 1585.34c-828.11,428.66 -1768.22,670.99 -2765.05,670.99 -996.82,0 -1936.94,-242.33 -2765.04,-670.99l5530.09 0z"/>
   <path class="fil1" d="M23330.46 16234.33c-97.38,-47.4 -225.49,-101.19 -385.62,-161.41 -160.14,-60.22 -342.08,-116.59 -544.48,-170.38 -203.72,-53.83 -422.79,-98.67 -661.1,-134.54 -238.27,-37.16 -481.68,-55.08 -731.52,-55.08 -201.15,0 -371.53,6.39 -512.46,19.2 -142.22,11.53 -260.09,28.2 -357.47,48.69 -96.05,19.21 -171.66,42.27 -228.02,69.18 -56.37,25.63 -99.92,52.55 -129.4,80.71 -30.74,26.92 -49.98,55.12 -58.94,82 -8.96,28.2 -12.81,52.54 -12.81,75.6 0,75.57 37.16,140.93 112.76,197.3 75.57,56.36 178.06,106.34 307.46,149.88 130.68,43.55 281.85,85.86 454.8,124.26 172.95,38.45 356.18,78.18 549.62,120.44 194.76,41.02 394.59,85.85 600.88,134.54 206.25,48.66 406.12,106.31 600.84,170.38 193.47,65.33 376.67,140.93 549.62,228.03 172.98,85.85 324.16,187.05 454.8,302.39 129.4,114.01 231.93,247.23 307.49,397.15 75.61,149.89 112.73,321.56 112.73,515.03 0,247.23 -43.55,459.91 -131.93,638 -87.14,178.09 -203.72,327.98 -351.04,449.67 -146.07,123.01 -315.16,221.64 -508.64,294.67 -192.15,74.32 -394.59,131.97 -605.98,171.67 -211.39,39.73 -426.61,66.64 -643.14,78.17 -216.5,12.82 -421.51,19.21 -617.51,19.21 -511.17,0 -982.65,-42.27 -1416.97,-125.55 -435.57,-83.28 -818.66,-188.33 -1151.74,-312.59l2.57 -1231.21c343.32,190.91 734.09,339.51 1172.23,447.14 439.46,107.62 908.37,161.42 1409.29,161.42 294.68,0 535.52,-15.39 721.28,-47.41 187.05,-30.73 331.84,-70.46 436.89,-119.15 105.06,-48.69 176.77,-102.49 213.93,-160.14 37.16,-57.65 56.36,-112.72 56.36,-165.27 0,-82 -37.12,-155.03 -112.73,-215.25 -74.28,-61.47 -176.8,-115.3 -307.48,-161.42 -129.37,-47.4 -280.58,-89.67 -453.53,-128.11 -172.95,-38.41 -356.14,-78.14 -549.61,-116.59 -193.44,-38.41 -393.31,-80.71 -598.27,-125.54 -205.01,-44.84 -404.87,-98.67 -598.31,-160.13 -193.48,-60.23 -376.67,-131.98 -549.62,-213.97 -172.95,-80.71 -324.12,-176.8 -453.52,-288.25 -130.69,-111.48 -233.17,-240.88 -307.49,-386.91 -75.61,-146.07 -112.73,-316.45 -112.73,-508.64 0,-228.03 39.69,-424.04 120.4,-589.31 79.43,-165.28 188.34,-306.2 324.16,-422.79 137.08,-116.58 294.64,-210.11 472.73,-283.14 179.38,-73.04 367.71,-129.4 565,-169.1 197.3,-39.73 398.45,-67.89 600.84,-81.99 202.44,-15.39 394.63,-23.06 577.82,-23.06 199.87,0 406.12,10.24 617.51,29.45 211.4,20.49 418.94,48.69 625.19,84.56 205,35.88 402.3,78.14 594.49,125.55 190.87,47.4 367.67,97.38 530.37,149.89l0 1192.75zm-1448.94 6953.78l0 4035.65 -1391.34 0 0 -4035.65 -2188.23 0 0 -1122.26 5771.61 0 0 1122.26 -2192.04 0zm3111.9 4035.65l0 -5157.91 5220.7 0 0 1099.2 -3790.92 0 0 853.25 3596.2 0 0 1099.23 -3596.2 0 0 1007 3843.47 0 0 1099.23 -5273.25 0zm11488.13 0l-3479.61 -3543.69 0 3543.69 -1391.34 0 0 -5157.91 1513.03 0 3483.46 3559.04 0 -3559.04 1383.67 0 0 5157.91 -1509.21 0zm7994.42 0l-3479.61 -3543.69 0 3543.69 -1391.34 0 0 -5157.91 1513.03 0 3483.47 3559.04 0 -3559.04 1383.66 0 0 5157.91 -1509.21 0zm2879.63 0l0 -5157.91 1391.34 0 0 5157.91 -1391.34 0zm7758.68 -3706.39c-97.38,-47.41 -225.49,-101.2 -385.62,-161.42 -160.14,-60.22 -342.08,-116.78 -544.48,-170.38 -203.64,-53.95 -422.91,-98.08 -661.1,-134.54 -238.31,-36.5 -481.68,-55.08 -731.52,-55.08 -201.15,0 -371.49,7.13 -512.46,19.21 -142.1,12.19 -260.01,28.74 -357.47,48.69 -95.9,19.67 -171.46,42.81 -228.02,69.18 -56.1,26.09 -99.37,53.21 -129.4,80.71 -30.11,27.5 -50.21,55.07 -58.94,81.99 -9.15,28.09 -12.81,52.55 -12.81,75.61 0,75.56 37.2,140.97 112.76,197.29 75.53,56.33 178.02,106.57 307.45,149.89 130.57,43.7 281.9,85.89 454.81,124.26 172.91,38.4 356.03,78.95 549.62,120.44 194.57,41.72 394.63,85.89 600.88,134.54 206.21,48.61 406.39,105.6 600.84,170.38 193.67,64.54 376.43,141.43 549.61,228.02 172.68,86.32 324.13,187.17 454.81,302.39 129.29,114.05 231.92,247.27 307.49,397.16 75.57,149.89 112.73,321.55 112.73,515.03 0,247.23 -44.09,459.67 -131.93,638 -87.61,177.78 -204.35,327.31 -351.04,449.66 -146.62,122.27 -315.47,220.9 -508.64,294.68 -192.38,73.5 -394.63,132.01 -605.98,171.66 -211.36,39.69 -426.65,66.02 -643.14,78.18 -216.5,12.15 -421.51,19.2 -617.51,19.2 -511.18,0 -982.65,-42.42 -1416.97,-125.54 -435.49,-83.36 -818.66,-188.34 -1151.75,-312.6l2.57 -1231.2c343.33,190.9 734.1,339.7 1172.24,447.13 439.38,107.75 908.36,161.42 1409.29,161.42 294.68,0 535.4,-16.16 721.28,-47.4 186.86,-31.44 331.84,-70.47 436.89,-119.16 105.06,-48.69 176.77,-102.48 213.93,-160.13 37.16,-57.65 56.36,-112.73 56.36,-165.28 0,-81.99 -37.74,-154.33 -112.73,-215.25 -74.82,-60.72 -177.11,-114.56 -307.49,-161.42 -129.59,-46.58 -280.61,-89.7 -453.52,-128.11 -172.91,-38.37 -356.18,-78.18 -549.62,-116.58 -193.39,-38.37 -393.34,-80.75 -598.26,-125.55 -204.97,-44.79 -404.72,-99.29 -598.31,-160.13 -193.24,-60.77 -376.48,-132.52 -549.62,-213.97 -172.68,-81.17 -323.89,-177.15 -453.52,-288.24 -130.37,-111.76 -232.7,-241.2 -307.49,-386.92 -75.06,-146.3 -112.73,-316.44 -112.73,-508.64 0,-228.02 40.24,-423.84 120.4,-589.31 79.89,-165 188.1,-306.55 324.16,-422.78 136.77,-116.86 294.56,-210.39 472.73,-283.15 179.22,-73.23 367.75,-129.44 565,-169.09 197.26,-39.69 398.52,-67.31 600.84,-82 202.44,-14.72 394.63,-23.06 577.82,-23.06 199.87,0 406.2,9.66 617.51,29.45 211.4,19.83 419.01,48.62 625.19,84.57 205,35.72 402.38,78.02 594.49,125.54 190.86,47.21 367.67,97.38 530.37,149.89l0 1192.76zm-19343.02 -4552.87l-2874.92 0 -484.26 976.23 -1554.04 0 2699.4 -5157.91 1554.04 0 2698.11 5157.91 -1554.04 0 -484.29 -976.23zm-2375.24 -1006.99l1883.27 0 -937.78 -1898.69 -945.49 1898.69zm10864.2 1629.61c-179.38,75.6 -361.44,143.11 -543.23,202.43 -183.31,59.8 -371.57,112.65 -567.54,156.32 -194.76,43.43 -400.97,77.51 -617.51,99.91 -216.46,22.4 -448.42,33.31 -695.69,33.31 -525.27,0 -1009.6,-56.21 -1451.56,-169.1 -440.74,-112.57 -821.19,-281.89 -1140.21,-508.64 -318.98,-226.74 -566.8,-509.02 -744.34,-848.1 -177.31,-338.62 -266.47,-735.39 -266.47,-1187.66 0,-453.52 89.16,-849.01 266.47,-1187.62 177.54,-339.08 425.67,-622.22 744.34,-848.11 319.33,-226.31 699.47,-396.07 1140.21,-508.64 441.96,-112.88 926.29,-169.09 1451.56,-169.09 247.27,0 479.23,10.91 695.69,33.3 216.54,22.4 422.75,56.49 617.51,99.92 195.97,43.66 384.62,95.35 567.54,155.03 182.18,59.44 363.85,128.11 543.23,203.72l0 1252.94c-142.22,-78.14 -292.38,-154.49 -449.71,-230.6 -157.8,-76.31 -331.95,-145.64 -521.42,-206.25 -191.02,-61.08 -399.65,-111.99 -627.75,-151.18 -226.66,-38.91 -484.3,-57.65 -768.73,-57.65 -438.13,0 -802.14,44.45 -1090.23,134.51 -289.69,90.52 -520.17,211.39 -693.12,361.28 -172.95,149.89 -293.19,321.67 -363.85,516.31 -70.23,193.48 -105.06,394.59 -105.06,602.13 0,137.11 14.65,273.09 44.84,407.44 29.99,133.37 80.24,260.36 149.88,379.2 69.96,119.43 161.46,228.07 274.19,327.98 112.73,99.91 252.61,186.54 420.22,258.8 168.08,72.49 363.77,130.02 588.06,171.66 224.06,41.6 481.69,61.51 775.07,61.51 284.43,0 542.07,-17.41 768.73,-53.8 228.1,-36.57 436.93,-84.41 627.75,-144.78 189.66,-60.03 363.62,-128.66 521.42,-205.01 157.33,-76.07 307.49,-154.99 449.71,-234.41l0 1252.94zm1300.34 353.61l0 -5157.91 5220.7 0 0 1099.19 -3790.91 0 0 853.25 3596.19 0 0 1099.24 -3596.19 0 0 1006.99 3843.46 0 0 1099.24 -5273.25 0zm-14689.2 -3397.62c0,257.51 -37.16,494.54 -112.76,711.04 -75.57,216.49 -196.01,403.54 -362.57,559.86 -166.52,156.31 -381.77,278 -646.96,365.14 -265.19,88.38 -589.35,131.93 -969.84,131.93l-2312.48 0 0 1629.65 -1391.34 0 0 -5157.91 3705.11 0c380.49,0 703.36,43.54 968.55,129.36 265.19,85.85 480.44,207.57 646.96,363.85 166.56,156.32 288.28,342.08 362.57,557.33 75.6,215.21 112.76,452.24 112.76,709.75zm-1406.72 23.06c0,-120.44 -16.63,-224.21 -51.22,-310.06 -33.35,-87.1 -89.71,-157.56 -166.56,-212.64 -78.14,-55.12 -179.38,-96.1 -304.92,-121.73 -124.26,-26.91 -279.29,-39.73 -461.24,-39.73l-2013.95 0 0 1329.87 2013.95 0c181.95,0 336.98,-10.28 461.24,-32.06 125.54,-21.77 226.78,-57.64 304.92,-108.87 76.85,-51.26 133.21,-117.87 166.56,-201.15 34.59,-81.99 51.22,-184.48 51.22,-303.63z"/>
  </g>
 </g>
</svg>
